# xmcd
#
# Track frame offsets:
#	150
#	11589
#	31215
#	47210
#	63083
#	77514
#	90973
#	105589
#	118235
#	130872
#	144507
#	156764
#	170356
#	185056
#	198129
#	212304
#	224512
#	238753
#	249865
#	261578
#	272173
#	284151
#	296301
#	306456
#	319548
#	333136
#
# Disc length: 4646 seconds
#
# Revision: 1
# Processed by: cddbd v1.5.2PL0 Copyright (c) Steve Scherf et al.
# Submitted via: audiograbber 1.83.01
#
DISCID=7712241a
DTITLE=HOAGIE CARMICHAEL - STARDUST [CD 1) HOAGIE CARMICHAEL SINGS
DYEAR=2008
DGENRE=Swing
TTITLE0=STARDUST
TTITLE1=WASHBOARD BLUES
TTITLE2=RAMPART STREET BLUES
TTITLE3=ROCKIN´ CHAIR
TTITLE4=GEORGIA ON MY MIND
TTITLE5=BESSIE COULDN´T HELP IT
TTITLE6=LAZY RIVER
TTITLE7=SING IT WAY DOWN LOW
TTITLE8=SNOWBALL
TTITLE9=LAZYBONES
TTITLE10=ONE MORNING IN MAY
TTITLE11=JUDY
TTITLE12=MOON COUNTRY IS HOME TO ME
TTITLE13=LITTLE OLD LADY
TTITLE14=TWO SLEEPY PEOPLE (with Ella Logan)
TTITLE15=RIVERBOAT SHUFFLE
TTITLE16=NEW ORLEANS (with Ella Logan)
TTITLE17=THE OLD MUSIC MASTER
TTITLE18=DON´T FORGET TO SAY "NO" ,BABY
TTITLE19=HONG KONG BLUES
TTITLE20=HUGGIN´AND CHALKIN´
TTITLE21=I MAY BE WRONG, BUT I THINK YOU´RE WONDERFULL
TTITLE22=OLE BUTTERMILK SKY
TTITLE23=A TUNE FOR HUMMING
TTITLE24=MEMPHIS IN JUNE
TTITLE25=ROCKIN´CHAIR
EXTD=
EXTT0=
EXTT1=
EXTT2=
EXTT3=
EXTT4=
EXTT5=
EXTT6=
EXTT7=
EXTT8=
EXTT9=
EXTT10=
EXTT11=
EXTT12=
EXTT13=
EXTT14=
EXTT15=
EXTT16=
EXTT17=
EXTT18=
EXTT19=
EXTT20=
EXTT21=
EXTT22=
EXTT23=
EXTT24=
EXTT25=
PLAYORDER=
